<svg id="Capa_1" enable-background="new 0 0 511 511" height="512" viewBox="0 0 511 511" width="512" xmlns="http://www.w3.org/2000/svg"><g id="Outline_21_" fill="#233d91"><path d="m398 336v-336h-365v463.5c0 26.191 21.309 47.5 47.5 47.5h350c26.191 0 47.5-21.309 47.5-47.5v-127.5zm-317.5 160c-17.92 0-32.5-14.58-32.5-32.5v-448.5h335v448.5c0 12.56 4.9 23.997 12.889 32.5zm382.5-32.5c0 17.92-14.58 32.5-32.5 32.5s-32.5-14.58-32.5-32.5v-112.5h65z"/><path d="m182.091 184.609 33.409-33.571 33.409 33.571 65.667-65.984c17.919-18.006 17.862-47.248-.127-65.185-8.695-8.669-20.235-13.44-32.505-13.44-.03 0-.062 0-.092 0-12.304.023-23.862 4.842-32.545 13.566l-.398.4-.397-.4c-8.684-8.724-20.242-13.542-32.547-13.566-12.309-.013-23.88 4.75-32.596 13.44-.303.302-.589.616-.882.925l-.795-.798c-8.682-8.725-20.24-13.543-32.544-13.567-.031 0-.061 0-.092 0-12.27 0-23.811 4.771-32.505 13.44-17.989 17.937-18.046 47.178-.126 65.184zm11.87-120.547c5.862-5.845 13.642-9.062 21.914-9.062h.062c8.295.016 16.087 3.265 21.942 9.148l11.03 11.083 11.03-11.083c5.854-5.883 13.646-9.132 21.941-9.148h.062c8.271 0 16.052 3.217 21.915 9.062 12.137 12.102 12.176 31.832.085 43.981l-55.034 55.301-55.034-55.301c-12.089-12.148-12.051-31.878.087-43.981zm-66.819 0c5.863-5.845 13.643-9.062 21.915-9.062h.062c8.295.016 16.088 3.265 21.942 9.148l2.883 2.898c-7.666 16.952-4.579 37.634 9.299 51.58l21.676 21.781-22.828 22.939-55.034-55.301c-12.091-12.15-12.052-31.88.085-43.983z"/><path d="m100.5 260.894-10.697-10.697-10.606 10.606 21.303 21.303 39.303-39.303-10.606-10.606z"/><path d="m158.5 232h190v15h-190z"/><path d="m158.5 262h120v15h-120z"/><path d="m81 367h55v-55h-55zm15-40h25v25h-25z"/><path d="m158.5 312h190v15h-190z"/><path d="m158.5 342h120v15h-120z"/><path d="m81 447h55v-55h-55zm15-40h25v25h-25z"/><path d="m158.5 392h190v15h-190z"/><path d="m158.5 422h120v15h-120z"/></g></svg>