<svg height="512" viewBox="0 0 128 128" width="512" xmlns="http://www.w3.org/2000/svg" xmlns:xlink="http://www.w3.org/1999/xlink"><linearGradient id="a" gradientUnits="userSpaceOnUse" x1="111.657" x2="16.291" y1="134.205" y2="38.839"><stop offset="0" stop-color="#3ea2e5"/><stop offset="1" stop-color="#f2da30"/></linearGradient><path d="m85.972 18.147a1.75 1.75 0 0 1 2.654-2.281 32.661 32.661 0 0 1 3.1 4.256 1.75 1.75 0 1 1 -2.987 1.824 29.264 29.264 0 0 0 -2.767-3.799zm-21.972 4.095a14.778 14.778 0 1 1 -14.777 14.779 14.795 14.795 0 0 1 14.777-14.779zm0 3.5a11.278 11.278 0 1 0 11.277 11.279 11.29 11.29 0 0 0 -11.277-11.279zm-52.863 83.285a1.747 1.747 0 0 0 2.259-1.01l1.6-4.2a1.75 1.75 0 0 0 -3.269-1.248l-1.6 4.2a1.748 1.748 0 0 0 1.01 2.258zm112 13.66a1.752 1.752 0 0 1 -1.442.756h-115.388a1.748 1.748 0 0 1 -1.635-2.373l2.528-6.618a1.75 1.75 0 0 1 3.27 1.246l-1.618 4.245h20.807l20.641-7.343-20.442-26.562h-8.08l-3.678 9.636a1.751 1.751 0 0 1 -1.631 1.126 1.75 1.75 0 0 1 -1.635-2.374l4.1-10.762a1.751 1.751 0 0 1 1.635-1.126h27c-.165-.269-.329-.53-.494-.8-10.386-17.201-15.614-32.249-15.539-44.728a32.469 32.469 0 0 1 51.119-26.562 1.75 1.75 0 0 1 -2.013 2.864 28.968 28.968 0 0 0 -45.606 23.709c-.151 24.879 23.09 55.53 28.964 62.879 5.874-7.348 29.114-38.007 28.964-62.865a28.973 28.973 0 0 0 -1.223-8.364 1.75 1.75 0 0 1 3.352-1.008 32.464 32.464 0 0 1 1.371 9.362c.075 12.468-5.153 27.516-15.542 44.714-.165.273-.329.534-.494.8h27a1.751 1.751 0 0 1 1.635 1.126l14.266 37.405a1.755 1.755 0 0 1 -.194 1.617zm-69.366-11.32 54.693-19.454-2.24-5.875h-27.989a185.716 185.716 0 0 1 -12.9 17.759 1.75 1.75 0 0 1 -2.666 0 185.716 185.716 0 0 1 -12.9-17.759h-15.494zm-13.671 8.576h58.9l-12.655-16.443-32.627 11.6h-.01zm79.052 0-9.442-24.759-19.9 7.077 13.609 17.682z" fill="url(#a)"/></svg>