<svg height="512pt" viewBox="-16 0 512 512.1" width="512pt" xmlns="http://www.w3.org/2000/svg"><path d="m437.851562 60.601562h-263.601562c-21 0-37.800781 17-38 37.796876v179.601562c0 21 17 38 38 38h200.199219c2.199219 0 4.199219 1 5.601562 2.800781l25.597657 35.800781c2.402343 3.199219 6.800781 4 10 1.597657 1.800781-1.398438 3-3.597657 3-5.800781v-27.597657c0-3.800781 3-6.800781 6.800781-6.800781h12.402343c21 0 38-17 38-38v-179.601562c-.203124-20.796876-17-37.796876-38-37.796876zm0 0" fill="#ffcd29"/><path d="m174.25 316c-21 0-37.800781-17-38-38v-92h-93.199219c-21 0-38 17-38 38v179.601562c0 21 17 38 38 38h12.398438c3.800781 0 6.800781 3 6.800781 6.796876v27.601562c0 4 3.199219 7.199219 7.199219 7.199219 2.402343 0 4.601562-1.199219 5.800781-3l25.601562-35.800781c1.199219-1.796876 3.398438-2.796876 5.597657-2.796876h200.199219c21 0 38-17 38-38v-87.601562zm0 0" fill="#ea4647"/><path d="m235.449219 478h-3.597657v-3.601562c0-2.796876-2.203124-5-5-5-2.800781 0-5 2.203124-5 5v3.601562h-3.601562c-2.800781 0-5 2.199219-5 5s2.199219 5 5 5h3.601562v3.601562c0 2.796876 2.199219 5 5 5 2.796876 0 5-2.203124 5-5v-3.601562h3.597657c2.800781 0 5-2.199219 5-5s-2.199219-5-5-5zm0 0" fill="#6dcc6d"/><path d="m163.449219 32.398438c0-.398438-.199219-.597657-.199219-1-.199219-.199219-.199219-.597657-.398438-.796876-.203124-.203124-.402343-.601562-.601562-.800781-2-1.800781-5-1.800781-7 0-.199219.199219-.398438.398438-.601562.800781-.398438.597657-.597657 1.199219-.796876 1.796876-.203124.601562-.203124 1.402343 0 2 0 .402343.199219.601562.199219 1 .199219.402343.199219.601562.398438.800781s.402343.601562.601562.800781c2 2 5 2 7 0 .199219-.199219.398438-.398438.597657-.800781.203124-.199219.402343-.597657.402343-.800781.199219-.199219.199219-.597657.199219-1 .398438-.597657.398438-1.398438.199219-2zm0 0" fill="#55acd5"/><path d="m381.449219 378.800781c0-.402343-.199219-.601562-.199219-1-.199219-.199219-.199219-.601562-.398438-.800781-.203124-.199219-.402343-.601562-.601562-.800781-2-1.800781-5-1.800781-7 0-.199219.199219-.398438.402343-.601562.800781-.398438.601562-.597657 1.199219-.796876 1.800781-.203124.597657-.203124 1.398438 0 2 0 .398438.199219.597657.199219 1 .199219.398438.199219.597657.398438.800781.199219.199219.402343.597657.601562.796876 2 2 5 2 7 0 .199219-.199219.398438-.398438.597657-.796876.203124-.203124.402343-.601562.402343-.800781.199219-.199219.199219-.601562.199219-1 .398438-.601562.398438-1.199219.199219-2zm0 0" fill="#231f20"/><path d="m179.851562 506c0-.398438-.203124-.601562-.203124-1-.199219-.199219-.199219-.601562-.398438-.800781s-.398438-.597657-.601562-.800781c-2-1.796876-5-1.796876-7 0-.199219.203124-.398438.402343-.597657.800781-.402343.601562-.601562 1.199219-.800781 1.800781s-.199219 1.398438 0 2c0 .398438.199219.601562.199219 1 .199219.398438.199219.601562.402343.800781.199219.199219.398438.597657.597657.800781 2 2 5 2 7 0 .199219-.203124.402343-.402343.601562-.800781.199219-.199219.398438-.601562.398438-.800781.199219-.199219.199219-.601562.199219-1 .203124-.601562.203124-1.398438.203124-2zm0 0" fill="#ffcd29"/><path d="m129.449219 16.398438c-8.199219-1.597657-14.398438-8-16-16 0-.199219-.199219-.398438-.398438-.398438s-.199219.199219-.402343.398438c-1.597657 8.203124-8 14.402343-16 16-.199219 0-.199219.203124-.199219.402343s.199219.199219.402343.398438c8.199219 1.601562 14.398438 8 16 16 0 .199219.199219.402343.398438.402343s.199219-.203124.398438-.402343c1.601562-8.199219 8-14.398438 16-16 .203124 0 .402343-.199219.402343-.398438-.199219-.402343-.402343-.402343-.601562-.402343zm0 0" fill="#ea4647"/><g fill="#231f20"><path d="m425.648438 176.601562h-239.199219c-2.800781 0-5-2.203124-5-5 0-2.800781 2.199219-5 5-5h239.402343c2.796876 0 5 2.199219 5 5 0 2.796876-2.402343 5-5.203124 5zm0 0"/><path d="m425.648438 201.601562h-239.199219c-2.800781 0-5-2.203124-5-5 0-2.800781 2.199219-5 5-5h239.402343c2.796876 0 5 2.199219 5 5 0 2.796876-2.402343 5-5.203124 5zm0 0"/><path d="m425.648438 126.800781h-239.199219c-2.800781 0-5-2.199219-5-5s2.199219-5 5-5h239.402343c2.796876 0 5 2.199219 5 5s-2.402343 5-5.203124 5zm0 0"/><path d="m425.648438 151.800781h-239.199219c-2.800781 0-5-2.199219-5-5s2.199219-5 5-5h239.402343c2.796876 0 5 2.199219 5 5s-2.402343 5-5.203124 5zm0 0"/><path d="m425.648438 226.601562h-239.199219c-2.800781 0-5-2.203124-5-5 0-2.800781 2.199219-5 5-5h239.402343c2.796876 0 5 2.199219 5 5 0 2.796876-2.402343 5-5.203124 5zm0 0"/><path d="m425.648438 251.601562h-239.199219c-2.800781 0-5-2.203124-5-5 0-2.800781 2.199219-5 5-5h239.402343c2.796876 0 5 2.199219 5 5 0 2.796876-2.402343 5-5.203124 5zm0 0"/><path d="m425.648438 276.398438h-239.199219c-2.800781 0-5-2.199219-5-5 0-2.796876 2.199219-5 5-5h239.402343c2.796876 0 5 2.203124 5 5 0 2.800781-2.402343 5-5.203124 5zm0 0"/><path d="m113.050781 296h-59c-2.800781 0-5-2.199219-5-5s2.199219-5 5-5h59.199219c2.800781 0 5 2.199219 5 5s-2.398438 5-5.199219 5zm0 0"/><path d="m123.050781 321h-69c-2.800781 0-5-2.199219-5-5s2.199219-5 5-5h69.199219c2.800781 0 5 2.199219 5 5s-2.398438 5-5.199219 5zm0 0"/><path d="m113.050781 246.199219h-59c-2.800781 0-5-2.199219-5-5s2.199219-5 5-5h59.199219c2.800781 0 5 2.199219 5 5s-2.398438 5-5.199219 5zm0 0"/><path d="m113.050781 271.199219h-59c-2.800781 0-5-2.199219-5-5s2.199219-5 5-5h59.199219c2.800781 0 5 2.199219 5 5s-2.398438 5-5.199219 5zm0 0"/><path d="m293.25 346h-239.199219c-2.800781 0-5-2.199219-5-5s2.199219-5 5-5h239.398438c2.800781 0 5 2.199219 5 5s-2.398438 5-5.199219 5zm0 0"/><path d="m293.25 371h-239.199219c-2.800781 0-5-2.199219-5-5s2.199219-5 5-5h239.398438c2.800781 0 5 2.199219 5 5s-2.398438 5-5.199219 5zm0 0"/><path d="m293.25 395.800781h-239.199219c-2.800781 0-5-2.199219-5-5s2.199219-5 5-5h239.398438c2.800781 0 5 2.199219 5 5s-2.398438 5-5.199219 5zm0 0"/><path d="m411.449219 362.800781c-4 0-7.597657-2-9.800781-5.199219l-25.597657-35.800781c-.402343-.402343-.800781-.800781-1.402343-.800781h-200.398438c-23.601562 0-42.800781-19.199219-43-43v-179.601562c0-23.597657 19.199219-42.796876 43-43h263.601562c23.597657 0 42.796876 19.203124 43 43v179.601562c0 23.601562-19.203124 42.800781-43 43h-12.402343c-1 0-1.800781.800781-1.800781 1.800781v27.597657c0 5.402343-3.398438 10-8.398438 11.601562-1.199219.601562-2.601562.800781-3.800781.800781zm-237.199219-297.199219c-18.199219 0-32.800781 14.796876-33 33v179.597657c0 18.199219 14.800781 32.800781 33 33h200.199219c3.800781 0 7.402343 1.800781 9.601562 5l25.597657 35.800781c.800781 1 2.203124 1.199219 3.203124.601562.597657-.402343 1-1 1-1.800781v-27.601562c0-6.597657 5.199219-11.800781 11.796876-11.800781h12.402343c18.199219 0 32.800781-14.796876 33-33v-180c0-18.199219-14.800781-32.796876-33-33h-263.800781zm0 0"/><path d="m69.449219 488.398438c-1.398438 0-2.597657-.199219-3.800781-.597657-5-1.601562-8.597657-6.402343-8.398438-11.601562v-27.597657c0-1-.800781-1.800781-1.800781-1.800781h-12.398438c-23.601562 0-42.800781-19.199219-42.9999998-43v-179.601562c0-23.597657 19.1992188-42.800781 42.9999998-43h93.199219c2.800781 0 5 2.199219 5 5v92c0 18.199219 14.800781 32.800781 33 33h170.398438c2.800781 0 5 2.199219 5 5v87.800781c0 23.601562-19.199219 42.800781-42.796876 43h-200.402343c-.597657 0-1.199219.199219-1.398438.800781l-25.601562 35.800781c-2.398438 2.796876-6 4.796876-10 4.796876zm-26.398438-297.199219c-18.199219 0-32.800781 14.800781-33 33v179.601562c0 18.199219 14.800781 32.800781 33 33h12.398438c6.601562 0 11.800781 5.199219 11.800781 11.800781v27.597657c0 1.199219 1 2.199219 2.199219 2.199219.800781 0 1.402343-.398438 1.800781-1l25.601562-35.796876c2.199219-3 5.796876-5 9.597657-5h200.199219c18.203124 0 32.800781-14.800781 33-33v-82.800781h-165.398438c-23.601562 0-42.800781-19.199219-43-43v-86.601562zm0 0"/><path d="m387.050781 97.398438c-1.402343 0-2.601562-.597657-3.601562-1.398438-.199219-.199219-.398438-.398438-.597657-.800781-.203124-.199219-.402343-.597657-.402343-.800781-.199219-.597657-.398438-1.199219-.398438-2 0-1.398438.597657-2.597657 1.398438-3.597657 2-1.800781 5-1.800781 7 0 1 1 1.402343 2.199219 1.402343 3.597657 0 .402343 0 .601562-.203124 1 0 .402343-.199219.601562-.199219 1-.199219.402343-.199219.601562-.398438.800781s-.402343.601562-.601562.800781c-.800781.800781-2 1.398438-3.398438 1.398438zm0 0"/><path d="m406.449219 97.398438c-.398438 0-.597657 0-1 0-.398438 0-.597657-.199219-1-.398438-.398438-.199219-.597657-.199219-.800781-.398438-.199219-.203124-.597657-.402343-.796876-.601562-.203124-.199219-.402343-.398438-.601562-.800781-.199219-.199219-.398438-.597657-.398438-.800781-.203124-.398438-.203124-.597657-.203124-1-.199219-.597657-.199219-1.398438 0-2 0-.398438.203124-.597657.203124-1 .199219-.398438.199219-.597657.398438-.796876.199219-.203124.398438-.601562.601562-.800781.199219-.199219.398438-.402343.796876-.601562.203124-.199219.601562-.398438.800781-.398438.402343-.199219.601562-.199219 1-.402343.601562-.199219 1.402343-.199219 2 0 .601562.203124 1.199219.402343 1.800781.800781.199219.199219.601562.402343.800781.601562s.398438.398438.597657.800781c.203124.199219.402343.597657.402343.796876.199219.402343.199219.601562.199219 1 0 .402343.199219.601562.199219 1 0 .402343 0 .601562-.199219 1 0 .402343-.199219.601562-.199219 1-.199219.402343-.199219.601562-.402343.800781-.199219.199219-.398438.601562-.597657.800781s-.402343.398438-.800781.601562c-.199219.199219-.601562.398438-.800781.398438-.398438.199219-.597657.199219-1 .398438-.398438 0-.800781 0-1 0zm0 0"/><path d="m425.648438 97.398438c-1.398438 0-2.597657-.597657-3.597657-1.398438-.199219-.199219-.402343-.398438-.601562-.800781-.199219-.199219-.398438-.597657-.398438-.800781-.402343-1.199219-.402343-2.597657 0-3.796876.199219-.203124.199219-.601562.398438-.800781s.402343-.601562.601562-.800781c1.199219-1.199219 2.800781-1.601562 4.398438-1.398438.402343 0 .601562.199219 1 .398438.402343.199219.601562.199219.800781.398438.199219.203124.601562.402343.800781.601562 2 2 2 5.199219 0 7-.199219.199219-.402343.398438-.800781.601562-.601562.398438-1.199219.597657-1.800781.796876 0-.199219-.398438 0-.800781 0zm0 0"/></g></svg>