<svg id="Capa_1" enable-background="new 0 0 512 512" height="512" viewBox="0 0 512 512" width="512" xmlns="http://www.w3.org/2000/svg"><g id="XMLID_4_"><g id="XMLID_73_"><g id="XMLID_1326_"><path id="XMLID_2748_" d="m158 138h344v344h-344z" fill="#ffce69" transform="matrix(-1 0 0 -1 660 620)"/></g><g id="XMLID_1391_"><path id="XMLID_2736_" d="m330.429 315.781h104v44h-104z" fill="#fff"/></g><g id="XMLID_1847_"><path id="XMLID_1846_" d="m330 195.167-44 44.167v-101.334h88v101.333z" fill="#fff"/></g></g><g id="XMLID_1222_"><circle id="XMLID_2731_" cx="158" cy="112.5" fill="#a0e5a5" r="82.5"/></g><g id="XMLID_2177_"><path id="XMLID_2733_" d="m502 128h-252.806c.854-5.042 1.306-10.219 1.306-15.5 0-51.005-41.495-92.5-92.5-92.5s-92.5 41.495-92.5 92.5c0 47.626 36.181 86.956 82.5 91.958v129.323h-103.419c-5.523 0-10 4.477-10 10s4.477 10 10 10h103.419v128.219c0 5.523 4.477 10 10 10h136c5.522 0 10-4.477 10-10s-4.478-10-10-10h-126v-267.542c34.092-3.682 62.689-25.96 75.412-56.458h32.588v91.333c0 4.048 2.44 7.697 6.182 9.242 3.744 1.546 8.047.684 10.902-2.185l36.916-37.055 36.916 37.056c1.914 1.921 4.478 2.943 7.086 2.943 1.285 0 2.581-.248 3.816-.758 3.741-1.545 6.182-5.194 6.182-9.242v-91.334h108v324h-108c-5.522 0-10 4.477-10 10s4.478 10 10 10h118c5.522 0 10-4.477 10-10v-344c0-5.523-4.478-10-10-10zm-344 57c-39.977 0-72.5-32.523-72.5-72.5s32.523-72.5 72.5-72.5 72.5 32.523 72.5 72.5-32.523 72.5-72.5 72.5zm206 30.126-26.916-27.018c-1.876-1.884-4.425-2.942-7.084-2.942s-5.208 1.059-7.084 2.942l-26.916 27.018v-67.126h68z"/><path id="XMLID_2735_" d="m444.429 407.781c0-5.523-4.478-10-10-10h-74.257c-5.522 0-10 4.477-10 10s4.478 10 10 10h74.257c5.522 0 10-4.477 10-10z"/><path id="XMLID_2739_" d="m434.429 369.781c5.522 0 10-4.477 10-10v-44c0-5.523-4.478-10-10-10h-104c-5.522 0-10 4.477-10 10v44c0 5.523 4.478 10 10 10zm-94-44h84v24h-84z"/><path id="XMLID_2740_" d="m10 289.781h17.291c5.523 0 10-4.477 10-10s-4.477-10-10-10h-17.291c-5.523 0-10 4.477-10 10s4.477 10 10 10z"/><path id="XMLID_2741_" d="m107 289.781c5.523 0 10-4.477 10-10s-4.477-10-10-10h-29.782c-5.523 0-10 4.477-10 10s4.477 10 10 10z"/><path id="XMLID_2742_" d="m107 397.781h-97c-5.523 0-10 4.477-10 10s4.477 10 10 10h97c5.523 0 10-4.477 10-10s-4.477-10-10-10z"/><path id="XMLID_2743_" d="m339 472c-2.63 0-5.21 1.07-7.07 2.93s-2.93 4.44-2.93 7.07 1.069 5.21 2.93 7.07 4.44 2.93 7.07 2.93 5.21-1.07 7.069-2.93c1.86-1.86 2.931-4.44 2.931-7.07s-1.07-5.21-2.931-7.07c-1.859-1.86-4.439-2.93-7.069-2.93z"/><path id="XMLID_2744_" d="m177.491 90.803-20.679 20.679-6.97-6.971c-3.905-3.905-10.237-3.905-14.143 0-3.905 3.905-3.905 10.237 0 14.143l14.042 14.042c1.953 1.953 4.512 2.929 7.071 2.929s5.119-.976 7.071-2.929l27.75-27.75c3.905-3.905 3.905-10.237 0-14.143-3.904-3.906-10.237-3.906-14.142 0z"/></g></g></svg>