<svg height="512" viewBox="0 0 64 64" width="512" xmlns="http://www.w3.org/2000/svg" xmlns:xlink="http://www.w3.org/1999/xlink"><linearGradient id="New_Gradient_Swatch" gradientUnits="userSpaceOnUse" x1="32" x2="32" y1="61.692" y2=".604"><stop offset="0" stop-color="#e93e3a"/><stop offset=".35" stop-color="#ed683c"/><stop offset=".7" stop-color="#f3903f"/><stop offset="1" stop-color="#fdc70c"/></linearGradient><linearGradient id="New_Gradient_Swatch-2" x1="49.5" x2="49.5" xlink:href="#New_Gradient_Swatch" y1="61.692" y2=".604"/><linearGradient id="New_Gradient_Swatch-3" x1="34" x2="34" xlink:href="#New_Gradient_Swatch" y1="61.692" y2=".604"/><linearGradient id="New_Gradient_Swatch-4" x1="53" x2="53" xlink:href="#New_Gradient_Swatch" y1="61.692" y2=".604"/><linearGradient id="New_Gradient_Swatch-5" x1="49" x2="49" xlink:href="#New_Gradient_Swatch" y1="61.692" y2=".604"/><linearGradient id="New_Gradient_Swatch-6" x1="45" x2="45" xlink:href="#New_Gradient_Swatch" y1="61.692" y2=".604"/><linearGradient id="New_Gradient_Swatch-7" x1="31" x2="31" xlink:href="#New_Gradient_Swatch" y1="61.692" y2=".604"/><linearGradient id="New_Gradient_Swatch-8" x1="35" x2="35" xlink:href="#New_Gradient_Swatch" y1="61.692" y2=".604"/><linearGradient id="New_Gradient_Swatch-9" x1="39" x2="39" xlink:href="#New_Gradient_Swatch" y1="61.692" y2=".604"/><linearGradient id="New_Gradient_Swatch-11" x1="19" x2="19" xlink:href="#New_Gradient_Swatch" y1="61.692" y2=".604"/><linearGradient id="New_Gradient_Swatch-13" x1="23" x2="23" xlink:href="#New_Gradient_Swatch" y1="61.692" y2=".604"/><linearGradient id="New_Gradient_Swatch-14" x1="15" x2="15" xlink:href="#New_Gradient_Swatch" y1="61.692" y2=".604"/><g id="Gateway-Buy"><path d="m59 36h-17v-17.026a4.977 4.977 0 0 0 2-3.974v-4a1 1 0 0 0 -.2-.6l-6-8a1 1 0 0 0 -.8-.4h-28a1 1 0 0 0 -.8.4l-6 8a1 1 0 0 0 -.2.6v4a4.977 4.977 0 0 0 2 3.974v20.026a5.006 5.006 0 0 0 5 5h17v15a3 3 0 0 0 3 3h26a3 3 0 0 0 3-3v-1h1a3 3 0 0 0 3-3v-16a3 3 0 0 0 -3-3zm-20-18a3 3 0 0 1 -3-3h-2a3 3 0 0 1 -6 0h-2a3 3 0 0 1 -6 0h-2a3 3 0 0 1 -6 0h-2a3 3 0 0 1 -6 0v-3h38v3a3 3 0 0 1 -3 3zm-29.5-14h27l4.5 6h-36zm-3.5 35v-19.1a4.962 4.962 0 0 0 5-1.93 4.954 4.954 0 0 0 8 0 4.954 4.954 0 0 0 8 0 4.954 4.954 0 0 0 8 0 4.962 4.962 0 0 0 5 1.93v16.1h-7a3 3 0 0 0 -3 3v1h-1a3 3 0 0 0 -2.816 2h-17.184a3 3 0 0 1 -3-3zm50 20a1 1 0 0 1 -1 1h-26a1 1 0 0 1 -1-1v-16a1 1 0 0 1 1-1h26a1 1 0 0 1 1 1zm4-4a1 1 0 0 1 -1 1h-1v-13a3 3 0 0 0 -3-3h-23v-1a1 1 0 0 1 1-1h26a1 1 0 0 1 1 1z" fill="url(#New_Gradient_Swatch)"/><path d="m51 52a2.959 2.959 0 0 0 -1.493.421 2.965 2.965 0 0 0 -1.507-.421 3 3 0 0 0 0 6 2.965 2.965 0 0 0 1.507-.421 2.959 2.959 0 0 0 1.493.421 3 3 0 0 0 0-6zm-3 4a1 1 0 1 1 1-1 1 1 0 0 1 -1 1zm3 0a.928.928 0 0 1 -.172-.038 2.776 2.776 0 0 0 0-1.924.928.928 0 0 1 .172-.038 1 1 0 0 1 0 2z" fill="url(#New_Gradient_Swatch-2)"/><path d="m31 50h6a1 1 0 0 0 1-1v-4a1 1 0 0 0 -1-1h-6a1 1 0 0 0 -1 1v4a1 1 0 0 0 1 1zm1-4h4v2h-4z" fill="url(#New_Gradient_Swatch-3)"/><path d="m52 45h2v4h-2z" fill="url(#New_Gradient_Swatch-4)"/><path d="m48 45h2v4h-2z" fill="url(#New_Gradient_Swatch-5)"/><path d="m44 45h2v4h-2z" fill="url(#New_Gradient_Swatch-6)"/><path d="m30 56h2v2h-2z" fill="url(#New_Gradient_Swatch-7)"/><path d="m34 56h2v2h-2z" fill="url(#New_Gradient_Swatch-8)"/><path d="m38 56h2v2h-2z" fill="url(#New_Gradient_Swatch-9)"/><path d="m30 52h10v2h-10z" fill="url(#New_Gradient_Swatch-8)"/><path d="m27.265 37.493 1.721-10.328a1 1 0 0 0 -.986-1.165h-2.82l.806-4.835-1.972-.33-.861 5.165h-8.306l-.861-5.165-1.972.33.806 4.835h-2.82a1 1 0 0 0 -.986 1.165l1.721 10.328a2.991 2.991 0 0 0 2.959 2.507h10.612a2.991 2.991 0 0 0 2.959-2.507zm-14.557-.329-1.527-9.164h15.638l-1.527 9.164a1 1 0 0 1 -.986.836h-10.612a1 1 0 0 1 -.986-.836z" fill="url(#New_Gradient_Swatch-11)"/><path d="m18 30h2v6h-2z" fill="url(#New_Gradient_Swatch-11)"/><path d="m22 30h2v6h-2z" fill="url(#New_Gradient_Swatch-13)"/><path d="m14 30h2v6h-2z" fill="url(#New_Gradient_Swatch-14)"/></g></svg>